<svg xmlns="http://www.w3.org/2000/svg" xmlns:xlink="http://www.w3.org/1999/xlink"><symbol id="001-home" viewBox="0 0 16 16">
<path d="M16 9.226l-8-6.21-8 6.21v-2.532l8-6.21 8 6.21zM14 9v6h-4v-4h-4v4h-4v-6l6-4.5z"/>
</symbol><symbol id="002-home2" viewBox="0 0 16 16">
<path d="M8 0.5l-8 8 1.5 1.5 1.5-1.5v6.5h4v-3h2v3h4v-6.5l1.5 1.5 1.5-1.5-8-8zM8 7c-0.552 0-1-0.448-1-1s0.448-1 1-1c0.552 0 1 0.448 1 1s-0.448 1-1 1z"/>
</symbol><symbol id="003-home3" viewBox="0 0 16 16">
<path d="M16 9.5l-3-3v-4.5h-2v2.5l-3-3-8 8v0.5h2v5h5v-3h2v3h5v-5h2z"/>
</symbol><symbol id="004-office" viewBox="0 0 16 16">
<path d="M0 16h8v-16h-8v16zM5 2h2v2h-2v-2zM5 6h2v2h-2v-2zM5 10h2v2h-2v-2zM1 2h2v2h-2v-2zM1 6h2v2h-2v-2zM1 10h2v2h-2v-2zM9 5h7v1h-7zM9 16h2v-4h3v4h2v-9h-7z"/>
</symbol><symbol id="005-newspaper" viewBox="0 0 16 16">
<path d="M14 4v-2h-14v11c0 0.552 0.448 1 1 1h13.5c0.828 0 1.5-0.672 1.5-1.5v-8.5h-2zM13 13h-12v-10h12v10zM2 5h10v1h-10zM8 7h4v1h-4zM8 9h4v1h-4zM8 11h3v1h-3zM2 7h5v5h-5z"/>
</symbol><symbol id="006-pencil" viewBox="0 0 16 16">
<path d="M13.5 0c1.381 0 2.5 1.119 2.5 2.5 0 0.563-0.186 1.082-0.5 1.5l-1 1-3.5-3.5 1-1c0.418-0.314 0.937-0.5 1.5-0.5zM1 11.5l-1 4.5 4.5-1 9.25-9.25-3.5-3.5-9.25 9.25zM11.181 5.681l-7 7-0.862-0.862 7-7 0.862 0.862z"/>
</symbol><symbol id="007-pencil2" viewBox="0 0 16 16">
<path d="M6 10l2-1 7-7-1-1-7 7-1 2zM4.52 13.548c-0.494-1.043-1.026-1.574-2.069-2.069l1.548-4.262 2-1.217 6-6h-3l-6 6-3 10 10-3 6-6v-3l-6 6-1.217 2z"/>
</symbol><symbol id="email" viewBox="0 0 22.5 15.6">
<style type="text/css">
<![CDATA[
	.st0{fill-rule:evenodd;clip-rule:evenodd;fill:#231F20;}
]]>
</style>
<path class="st0" d="M22.5,14.2c0,0.8-0.7,1.4-1.4,1.4H1.4C0.7,15.6,0,15,0,14.2V1.5c0-0.8,0.6-1.4,1.4-1.4l0-0.1h19.7l0,0.1h0.3
	h-0.3c0.8,0,1.4,0.6,1.4,1.4V14.2z M0,15.6 M0,15.6 M20.8,12.1V3.5l-5.7,4.3L20.8,12.1z M20.8,1.7H1.7c3.2,2.4,6.3,4.8,9.5,7.2
	C14.4,6.5,17.6,4.1,20.8,1.7z M20.8,13.9l-6.9-5.2l-1.8,1.4h-1.7L8.6,8.7l-6.8,5.1H20.8z M7.4,7.8L1.7,3.5v8.7L7.4,7.8z"/>
</symbol><symbol id="phone" viewBox="0 0 18 18">
<style type="text/css">
<![CDATA[
	.st0{fill-rule:evenodd;clip-rule:evenodd;}
]]>
</style>
<path class="st0" d="M-327.3-1466c4.2,4.2,8,5.5,8.5,5.5c0.5,0.1,1.4,0.2,2.6-1c1.5-1.5,1.6-2.2,0.8-3c-0.8-0.8-2.8-2-3.3-2.3
	c-0.5-0.3-1-0.2-1.4,0.1c-0.4,0.3-0.8,0.6-1.3,0.9s-0.9,0.4-1.5,0.1c-0.6-0.4-1.5-1-2.6-2.1s-1.7-2-2.1-2.6
	c-0.4-0.6-0.2-1.1,0.1-1.5c0.3-0.4,0.6-0.9,0.9-1.3s0.4-0.9,0.1-1.4c-0.3-0.5-1.5-2.5-2.3-3.3c-0.8-0.8-1.6-0.7-3,0.8
	c-1.2,1.2-1.1,2.1-1,2.6C-332.7-1474-331.5-1470.2-327.3-1466L-327.3-1466z"/>
</symbol><symbol id="pin" viewBox="0 0 14 18">
<style type="text/css">
<![CDATA[
	.st0{fill-rule:evenodd;clip-rule:evenodd;}
]]>
</style>
<path class="st0" d="M7,0C3.1,0,0,3.1,0,7c0,5.3,5.7,11,7,11c1.4,0,7-5.7,7-11C14,3.1,10.9,0,7,0z M7,10.2c-1.8,0-3.2-1.4-3.2-3.2
	c0-1.8,1.4-3.2,3.2-3.2s3.2,1.4,3.2,3.2C10.2,8.7,8.8,10.2,7,10.2z"/>
</symbol></svg>